# xmcd
#
# Track frame offsets:
#	150
#	18045
#	33796
#	48109
#	60763
#	79077
#	91758
#	111071
#	131241
#	149071
#	169089
#	187756
#	202614
#	222429
#	238510
#	256789
#	274345
#
# Disc length: 3871 seconds
#
# Revision: 0
# Processed by: cddbd v1.5.2PL0 Copyright (c) Steve Scherf et al.
# Submitted via: EasyCDDAExtractor 4.6.0.1
#
DISCID=d60f1d11
DTITLE=Alain Morisod and Sweet People - Anthologie 30 ans de succès CD 1
DYEAR=2008
DGENRE=
TTITLE0=Chansons d'amour
TTITLE1=Et j'ai le mal de toi
TTITLE2=Ce n'est qu'un rêve
TTITLE3=Et les oiseaux chantaient
TTITLE4=California blue
TTITLE5=Oui devant dieu
TTITLE6=Si on partait en vacances (inédit)
TTITLE7=Je pense à toi
TTITLE8=Hasta Manhana mon amour
TTITLE9=Les trois cloches
TTITLE10=Neige
TTITLE11=Laisse faire la chance (inédit)
TTITLE12=Prendre un enfant par la main
TTITLE13=Après toi
TTITLE14=Au revoir
TTITLE15=Pour tous ceux qui vont s'aimer
TTITLE16=Ma plus jolie chanson (inédit)
EXTD=
EXTT0=
EXTT1=
EXTT2=
EXTT3=
EXTT4=
EXTT5=
EXTT6=
EXTT7=
EXTT8=
EXTT9=
EXTT10=
EXTT11=
EXTT12=
EXTT13=
EXTT14=
EXTT15=
EXTT16=
PLAYORDER=
